<svg height="2238" width="720" xmlns="http://www.w3.org/2000/svg">
<rect height="2238" fill="#555" width="720"></rect>
<text fill="#7f7" font-family="Courier New" font-size="12" xml:space="preserve">
<tspan x="10" y="26"></tspan>
<tspan x="10" y="42">&gt; npmdoc-foreman@0.0.1 test /home/travis/build/npmdoc/node-npmdoc-foreman</tspan>
<tspan x="10" y="58">&gt; (set -e; export PORT=$(utility2 shServerPortRandom); utility2 test test.js)</tspan>
<tspan x="10" y="74"></tspan>
<tspan x="10" y="90"></tspan>
<tspan x="10" y="106">[MODE_BUILD=npmTest] - 2017-04-07T23:04:57Z - npm-testing /home/travis/build/npmdoc/node-npmdoc-\</tspan>
<tspan x="10" y="122">foreman</tspan>
<tspan x="10" y="138"></tspan>
<tspan x="10" y="154"></tspan>
<tspan x="10" y="170">covering $ /home/travis/.nvm/versions/node/v6.10.2/bin/node /home/travis/build/npmdoc/node-npmdo\</tspan>
<tspan x="10" y="186">c-foreman/test.js</tspan>
<tspan x="10" y="202">merging file:///home/travis/build/npmdoc/node-npmdoc-foreman/tmp/build/test-report.json to test-\</tspan>
<tspan x="10" y="218">report</tspan>
<tspan x="10" y="234">&gt; server listening on http-port 46975</tspan>
<tspan x="10" y="250">   _____                           </tspan>
<tspan x="10" y="266">  |   __|___ ___ ___ _____ ___ ___ </tspan>
<tspan x="10" y="282">  |   __| . |  _| -_|     |   |   |</tspan>
<tspan x="10" y="298">  |__|  |___|_| |___|_|_|_|_^_|_|_|</tspan>
<tspan x="10" y="314"></tspan>
<tspan x="10" y="330">  Usage: test [options] [command]</tspan>
<tspan x="10" y="346"></tspan>
<tspan x="10" y="362"></tspan>
<tspan x="10" y="378">  Commands:</tspan>
<tspan x="10" y="394"></tspan>
<tspan x="10" y="410">    start [options] [procs]     Start the jobs in the Procfile</tspan>
<tspan x="10" y="426">    run [options] &lt;COMMAND...&gt;  Run a one off process using the ENV variables</tspan>
<tspan x="10" y="442">    export [options] [PROCS]    Export to an upstart job independent of foreman</tspan>
<tspan x="10" y="458"></tspan>
<tspan x="10" y="474">  Options:</tspan>
<tspan x="10" y="490"></tspan>
<tspan x="10" y="506">    -h, --help             output usage information</tspan>
<tspan x="10" y="522">    -V, --version          output the version number</tspan>
<tspan x="10" y="538">    -j, --procfile &lt;FILE&gt;  load procfile FILE</tspan>
<tspan x="10" y="554">    -e, --env      &lt;FILE&gt;  load environment from FILE, a comma-separated list</tspan>
<tspan x="10" y="570">    -p, --port     &lt;PORT&gt;  start indexing ports at number PORT</tspan>
<tspan x="10" y="586"></tspan>
<tspan x="10" y="602">created apidoc file:///home/travis/build/npmdoc/node-npmdoc-foreman/tmp/build/apidoc.html</tspan>
<tspan x="10" y="618"></tspan>
<tspan x="10" y="634"></tspan>
<tspan x="10" y="650">browserTest - created electron entry-page /home/travis/build/npmdoc/node-npmdoc-foreman/tmp/elec\</tspan>
<tspan x="10" y="666">tron.15b4aa9df990.bad329eba9e27.html</tspan>
<tspan x="10" y="682"></tspan>
<tspan x="10" y="698">[node test-case 1 of 6 passed] - testCase_buildLib_default</tspan>
<tspan x="10" y="714">[node test-case 2 of 6 passed] - testCase_buildReadme_default</tspan>
<tspan x="10" y="730">[node test-case 3 of 6 passed] - testCase_buildTest_default</tspan>
<tspan x="10" y="746"></tspan>
<tspan x="10" y="762">browserTest - created electron entry-page /home/travis/build/npmdoc/node-npmdoc-foreman/tmp/elec\</tspan>
<tspan x="10" y="778">tron.15b4aa9dfdd0.20b4e5932481e.html</tspan>
<tspan x="10" y="794"></tspan>
<tspan x="10" y="810">Xlib:  extension "RANDR" missing on display ":99.0".</tspan>
<tspan x="10" y="826">Xlib:  extension "RANDR" missing on display ":99.0".</tspan>
<tspan x="10" y="842">&gt; server listening on http-port 42838</tspan>
<tspan x="10" y="858">merging file:///home/travis/build/npmdoc/node-npmdoc-foreman/tmp/build/test-report.json to test-\</tspan>
<tspan x="10" y="874">report</tspan>
<tspan x="10" y="890">Xlib:  extension "RANDR" missing on display ":99.0".</tspan>
<tspan x="10" y="906">[5930:0407/230459:WARNING:audio_manager.cc(314)] Multiple instances of AudioManager detected</tspan>
<tspan x="10" y="922">[5930:0407/230459:WARNING:audio_manager.cc(275)] Multiple instances of AudioManager detected</tspan>
<tspan x="10" y="938">merging file:///home/travis/build/npmdoc/node-npmdoc-foreman/tmp/build/test-report.json to test-\</tspan>
<tspan x="10" y="954">report</tspan>
<tspan x="10" y="970">[5976:0407/230459:ERROR:sandbox_linux.cc(343)] InitializeSandbox() called with multiple threads \</tspan>
<tspan x="10" y="986">in process gpu-process. </tspan>
<tspan x="10" y="1002">Xlib:  extension "RANDR" missing on display ":99.0".</tspan>
<tspan x="10" y="1018">[5930:0407/230459:ERROR:browser_gpu_channel_host_factory.cc(131)] Failed to create channel.</tspan>
<tspan x="10" y="1034">[5935:0407/230459:WARNING:audio_manager.cc(314)] Multiple instances of AudioManager detected</tspan>
<tspan x="10" y="1050">[5935:0407/230459:WARNING:audio_manager.cc(275)] Multiple instances of AudioManager detected</tspan>
<tspan x="10" y="1066">[6000:0407/230459:ERROR:sandbox_linux.cc(343)] InitializeSandbox() called with multiple threads \</tspan>
<tspan x="10" y="1082">in process gpu-process. </tspan>
<tspan x="10" y="1098">[5935:0407/230459:ERROR:browser_gpu_channel_host_factory.cc(131)] Failed to create channel.</tspan>
<tspan x="10" y="1114"></tspan>
<tspan x="10" y="1130">browserTest - opened url /home/travis/build/npmdoc/node-npmdoc-foreman/tmp/build/apidoc.html</tspan>
<tspan x="10" y="1146"></tspan>
<tspan x="10" y="1162"></tspan>
<tspan x="10" y="1178">browserTest - opened url http://127.0.0.1:46975?modeTest=1</tspan>
<tspan x="10" y="1194"></tspan>
<tspan x="10" y="1210">[5935:0407/230501:INFO:CONSOLE(249)] "----------|-----------|-----------|-----------|-----------\</tspan>
<tspan x="10" y="1226">|</tspan>
<tspan x="10" y="1242">File      |   % Stmts |% Branches |   % Funcs |   % Lines |</tspan>
<tspan x="10" y="1258">----------|-----------|-----------|-----------|-----------|</tspan>
<tspan x="10" y="1274">----------|-----------|-----------|-----------|-----------|</tspan>
<tspan x="10" y="1290">All files |       100 |       100 |       100 |       100 |</tspan>
<tspan x="10" y="1306">----------|-----------|-----------|-----------|-----------|</tspan>
<tspan x="10" y="1322">", source: file:///home/travis/build/npmdoc/node-npmdoc-foreman/tmp/electron.15b4aa9dfdd0.20b4e5\</tspan>
<tspan x="10" y="1338">932481e.html (249)</tspan>
<tspan x="10" y="1354">[5935:0407/230501:INFO:CONSOLE(249)] "created coverage file:///tmp/build/coverage.html/index.htm\</tspan>
<tspan x="10" y="1370">l", source: file:///home/travis/build/npmdoc/node-npmdoc-foreman/tmp/electron.15b4aa9dfdd0.20b4e\</tspan>
<tspan x="10" y="1386">5932481e.html (249)</tspan>
<tspan x="10" y="1402">[node test-case 4 of 6 passed] - testCase_buildApp_default</tspan>
<tspan x="10" y="1418"></tspan>
<tspan x="10" y="1434">browserTest - exit-code 1 - /home/travis/build/npmdoc/node-npmdoc-foreman/tmp/build/apidoc.html</tspan>
<tspan x="10" y="1450"></tspan>
<tspan x="10" y="1466">[node test-case 5 of 6 passed] - testCase_buildApidoc_default</tspan>
<tspan x="10" y="1482"></tspan>
<tspan x="10" y="1498">browserTest - created screenCapture file:///home/travis/build/npmdoc/node-npmdoc-foreman/tmp/bui\</tspan>
<tspan x="10" y="1514">ld/screenCapture.%2F.png</tspan>
<tspan x="10" y="1530"></tspan>
<tspan x="10" y="1546">browserTest - created screenCapture file:///home/travis/build/npmdoc/node-npmdoc-foreman/tmp/bui\</tspan>
<tspan x="10" y="1562">ld/screenCapture.%2F.html</tspan>
<tspan x="10" y="1578"></tspan>
<tspan x="10" y="1594">browserTest - exit-code 0 - http://127.0.0.1:46975?modeTest=1</tspan>
<tspan x="10" y="1610"></tspan>
<tspan x="10" y="1626"></tspan>
<tspan x="10" y="1642">browserTest - merged coverage from /home/travis/build/npmdoc/node-npmdoc-foreman/tmp/coverage.%2\</tspan>
<tspan x="10" y="1658">F.json</tspan>
<tspan x="10" y="1674"></tspan>
<tspan x="10" y="1690"></tspan>
<tspan x="10" y="1706">browserTest - merging test-report from /home/travis/build/npmdoc/node-npmdoc-foreman/tmp/test-re\</tspan>
<tspan x="10" y="1722">port.%2F.json</tspan>
<tspan x="10" y="1738"></tspan>
<tspan x="10" y="1754">[node test-case 6 of 6 passed] - testCase_webpage_default</tspan>
<tspan x="10" y="1770">----------------------------|-----------|-----------|-----------|-----------|</tspan>
<tspan x="10" y="1786">File                        |   % Stmts |% Branches |   % Funcs |   % Lines |</tspan>
<tspan x="10" y="1802">----------------------------|-----------|-----------|-----------|-----------|</tspan>
<tspan x="10" y="1818">   node-npmdoc-foreman/     |       100 |       100 |       100 |       100 |</tspan>
<tspan x="10" y="1834">      example.js            |       100 |       100 |       100 |       100 |</tspan>
<tspan x="10" y="1850">      lib.npmdoc_foreman.js |       100 |       100 |       100 |       100 |</tspan>
<tspan x="10" y="1866">      test.js               |       100 |       100 |       100 |       100 |</tspan>
<tspan x="10" y="1882">----------------------------|-----------|-----------|-----------|-----------|</tspan>
<tspan x="10" y="1898">All files                   |       100 |       100 |       100 |       100 |</tspan>
<tspan x="10" y="1914">----------------------------|-----------|-----------|-----------|-----------|</tspan>
<tspan x="10" y="1930"></tspan>
<tspan x="10" y="1946">created coverage file:///home/travis/build/npmdoc/node-npmdoc-foreman/tmp/build/coverage.html/in\</tspan>
<tspan x="10" y="1962">dex.html</tspan>
<tspan x="10" y="1978">merging file:///home/travis/build/npmdoc/node-npmdoc-foreman/tmp/build/test-report.json to test-\</tspan>
<tspan x="10" y="1994">report</tspan>
<tspan x="10" y="2010"></tspan>
<tspan x="10" y="2026">-------------------------------------------------------</tspan>
<tspan x="10" y="2042">| test-report - buildNpmdoc - node - linux v6.10.2 - 2017-04-07T23:04:19.601Z</tspan>
<tspan x="10" y="2058">|   53936 ms            0 failed        6 passed      |</tspan>
<tspan x="10" y="2074">-------------------------------------------------------</tspan>
<tspan x="10" y="2090"></tspan>
<tspan x="10" y="2106">created test-report file:///home/travis/build/npmdoc/node-npmdoc-foreman/tmp/build/test-report.h\</tspan>
<tspan x="10" y="2122">tml</tspan>
<tspan x="10" y="2138"></tspan>
<tspan x="10" y="2154"></tspan>
<tspan x="10" y="2170">npmTest - 0 failed tests</tspan>
<tspan x="10" y="2186"></tspan>
<tspan x="10" y="2202"></tspan>
<tspan x="10" y="2218">[MODE_BUILD=npmTest] - 2017-04-07T23:05:16Z - EXIT_CODE - 0</tspan>
</text>
</svg>
